<svg height="512" viewBox="0 0 512 512" width="512" xmlns="http://www.w3.org/2000/svg"><g id="flat"><rect fill="#41dfd0" height="296" rx="22" width="464" x="24" y="112"/><path d="m24 352h464v8h-464z" fill="#37c9c3"/><path d="m320 360h-240v-336h192a48 48 0 0 1 48 48z" fill="#eaeae8"/><path d="m80 352h208v8h-208z" fill="#cdcdcd"/><path d="m80 80h-48v-8a48 48 0 0 1 48-48z" fill="#cbcbcb"/><path d="m112 64h176v144h-176z" fill="#dbdbdb"/><path d="m288 56h-176a8 8 0 0 0 -8 8v144a8 8 0 0 0 8 8h176a8 8 0 0 0 8-8v-144a8 8 0 0 0 -8-8zm-8 48h-32v-32h32zm-96 48v-32h48v32zm48 16v32h-48v-32zm-64-16h-48v-32h48zm16-48v-32h48v32zm64 16h32v32h-32zm-80-48v32h-48v-32zm-48 96h48v32h-48zm128 32v-32h32v32z" fill="#6cbae5"/><path d="m176 456h160a8 8 0 0 1 8 8v24h-176v-24a8 8 0 0 1 8-8z" fill="#dbdbdb"/><path d="m328 456h-144l12.8-9.6a48 48 0 0 0 19.2-38.4l40-8 40 8a48 48 0 0 0 19.2 38.4z" fill="#c3c3c3"/><path d="m466 408h-420a22 22 0 0 1 -22-22v-26h464v26a22 22 0 0 1 -22 22z" fill="#dbdbdb"/><circle cx="120" cy="296" fill="#fbb540" r="64"/><path d="m129.276 291.073-14.671-3.673a3.438 3.438 0 0 1 -.7-6.411 13.7 13.7 0 0 1 12.2 0l6.322 3.161a8 8 0 1 0 7.156-14.31l-6.323-3.161a29.277 29.277 0 0 0 -5.26-2.008v-11.671h-16v11.671a29.277 29.277 0 0 0 -5.255 2.013 19.438 19.438 0 0 0 3.979 36.243l14.676 3.673a3.438 3.438 0 0 1 .7 6.411 13.707 13.707 0 0 1 -12.2 0l-6.322-3.161a8 8 0 1 0 -7.156 14.31l6.323 3.161a29.277 29.277 0 0 0 5.255 2.008v11.671h16v-11.671a29.277 29.277 0 0 0 5.255-2.013 19.438 19.438 0 0 0 -3.979-36.243z" fill="#ea9d2d"/><path d="m288 136h152v224h-152z" fill="#f3af3e"/><path d="m288 352h152v8h-152z" fill="#da922a"/><path d="m320 168h88v40h-88z" fill="#a8d6da"/><path d="m320 200h88v8h-88z" fill="#8aced8"/><g fill="#da922a"><path d="m320 240h32v32h-32z"/><path d="m320 296h32v32h-32z"/><path d="m376 296h32v32h-32z"/><path d="m376 240h32v32h-32z"/></g><path d="m216 280h32v80h-32z" fill="#f55648"/><path d="m216 352h32v8h-32z" fill="#ea5245"/><path d="m240 280h8v80h-8z" fill="#c7463b"/><path d="m240 352h8v8h-8z" fill="#c14439"/><path d="m248 280h-32l16-40z" fill="#eeb58e"/><path d="m240 280h-24l12-30z" fill="#f6bb92"/></g></svg>